<svg xmlns="http://www.w3.org/2000/svg" viewBox="0 0 440.63 103"><defs><style>.cls-1{fill:#959ca6;}.cls-2{fill:#1c2b39;}.cls-3{fill:#7ad0e2;}</style></defs><title>Asset 2</title><g id="Layer_2" data-name="Layer 2"><g id="Layer_1-2" data-name="Layer 1"><polygon class="cls-1" points="186.98 81.99 181.6 93.19 176.19 81.99 172.21 81.99 172.21 102.69 176.25 102.69 176.25 90.63 180.24 98.48 182.97 98.48 186.93 90.63 186.93 102.69 190.97 102.69 190.97 81.99 186.98 81.99"/><path class="cls-1" d="M203,88.1l2.53,7.53h-5.14ZM201.29,82l-7.53,20.7H198L199.22,99h7.36l1.22,3.66H212L204.46,82Z"/><path class="cls-1" d="M225.6,88.33a2.71,2.71,0,0,1-2.94,2.74h-3.81V85.6h3.81a2.7,2.7,0,0,1,2.94,2.73m4,0c0-3.46-2.5-6.34-6.72-6.34h-8.11V102.7h4V94.44h2.91l4,8.26h4.68l-4.62-8.93a5.59,5.59,0,0,0,3.78-5.44"/><rect class="cls-1" x="234.06" y="81.99" width="4.04" height="20.7"/><polygon class="cls-1" points="254.96 81.99 254.96 94.67 246.76 81.99 243.16 81.99 243.16 102.69 247.2 102.69 247.2 89.99 255.4 102.69 259 102.69 259 81.99 254.96 81.99"/><polygon class="cls-1" points="264.06 81.99 264.06 102.69 277.7 102.69 277.7 99.09 268.11 99.09 268.11 94.06 276.28 94.06 276.28 90.45 268.11 90.45 268.11 85.6 277.7 85.6 277.7 81.99 264.06 81.99"/><path class="cls-2" d="M13.13,59.94V35.41c0-6.07,2.79-9.19,8-9.19s6.52,2.87,6.52,9.19V59.94H41.07V30.1c0-10.37-6.09-16.27-15.5-16.27-5.75,0-10,2.11-12.78,6.49V0H0V59.94Zm36.48-9-7.45,7.76,5.59,5.48,7.36-7.51A22.41,22.41,0,0,0,69,61.12c14,0,24.31-10.45,24.31-23.52A23,23,0,0,0,88,22.43l6.44-6.83L88.65,10,82,17a24.69,24.69,0,0,0-12.53-3.46,23.25,23.25,0,0,0-17.19,7,23.4,23.4,0,0,0-7,16.69,25,25,0,0,0,4.32,13.66M78.66,31.61A11.47,11.47,0,0,1,80,37.1c0,6.65-4.4,11.21-10.75,11.21A12.59,12.59,0,0,1,63.92,47ZM59.09,41.39a18.33,18.33,0,0,1-.76-4.55A10.39,10.39,0,0,1,68.92,26.39a12,12,0,0,1,3.81.59ZM108.24,37A11,11,0,0,1,119.5,25.88c5.42,0,10.25,4.72,10.25,11.3,0,6.32-4.66,11.13-10.59,11.13A11,11,0,0,1,108.24,37m20.92,18.21a21.71,21.71,0,0,1,.08,2.28c0,6.91-3.56,10.7-9.48,10.7-4,0-6.69-1.77-7.54-4.63H97.32c1.69,9.44,10,15.51,22,15.51,8.46,0,14.9-2.78,19.22-8.35,3.56-4.63,3.56-9.44,3.56-15.43V14.67H129.24v5.06A14.73,14.73,0,0,0,117,14a20,20,0,0,0-14.56,6.24,23.24,23.24,0,0,0-7,16.87c0,13.15,9.23,23.1,21.43,23.1a17.36,17.36,0,0,0,12.28-5m19.68,4.72h13.29V0H148.84Zm47.72-45.27V39.2c0,6.07-2.71,9.19-8,9.19s-6.52-2.86-6.52-9.19V14.67H168.61V44.51c0,10.37,6.19,16.28,15.59,16.28,5.84,0,10.16-2.2,13-6.92v6.07h12.45V14.67Zm32.66,45.27V35.41c0-6.07,2.79-9.19,8-9.19s6.52,2.87,6.52,9.19V59.94h13.38V30.1c0-10.37-6.09-16.27-15.49-16.27-6,0-10.25,2.36-13,6.91l.17-6.07h-12.7V59.94ZM274,37A11.23,11.23,0,0,1,285.27,25.8a11,11,0,0,1,11.1,11.38,10.72,10.72,0,0,1-10.59,11C278.92,48.14,274,43.33,274,37m22.27,22.93h13V0H295.86V19.73c-3.05-3.88-7.28-5.74-12.79-5.74a21.18,21.18,0,0,0-15.16,6.24,22.94,22.94,0,0,0-7.28,16.87,22.92,22.92,0,0,0,8,17.78,20.69,20.69,0,0,0,14.23,5.32c5.42,0,9.48-1.44,13.46-5.32Z"/><path class="cls-3" d="M427.2,37.3v.05a10.76,10.76,0,1,1-21.51,0V37.3h-14.5s0,0,0,.05a10.76,10.76,0,1,1-21.51,0V37.3h-14.5s0,0,0,.05a10.76,10.76,0,1,1-21.51,0V37.3H320.48a23.56,23.56,0,0,0,6.69,16.57,22.5,22.5,0,0,0,17.19,7.25A23.59,23.59,0,0,0,361.63,54c.31-.3.58-.62.86-.94.23.26.44.52.68.77a22.51,22.51,0,0,0,17.19,7.25A23.63,23.63,0,0,0,397.64,54c.3-.3.57-.62.85-.94.23.26.44.52.68.77a22.53,22.53,0,0,0,17.19,7.25A23.63,23.63,0,0,0,433.64,54a22.94,22.94,0,0,0,6.84-16.74Z"/><path class="cls-1" d="M302.1,96.68a5.78,5.78,0,0,0-1.61-4.41,6.81,6.81,0,0,0-4-1.61l-2.46-.35a3.6,3.6,0,0,1-1.93-.82,2,2,0,0,1-.62-1.49c0-1.44,1.06-2.64,3.22-2.64A5.78,5.78,0,0,1,299,86.8l2.58-2.55a9,9,0,0,0-6.73-2.43c-4.51,0-7.26,2.61-7.26,6.32a5.5,5.5,0,0,0,1.5,4.1,7.06,7.06,0,0,0,4,1.72l2.52.35a3.13,3.13,0,0,1,1.84.74,2.31,2.31,0,0,1,.65,1.75c0,1.67-1.29,2.58-3.69,2.58a6.79,6.79,0,0,1-5-1.76l-2.64,2.63c2.05,2.08,4.45,2.75,7.61,2.75,4.36,0,7.72-2.28,7.72-6.32"/><path class="cls-1" d="M316.64,92.41c0,4-.23,5-1,5.85A3.37,3.37,0,0,1,313,99.38a3.43,3.43,0,0,1-2.63-1.12c-.79-.87-1-1.84-1-5.85s.2-5,1-5.85A3.46,3.46,0,0,1,313,85.45a3.4,3.4,0,0,1,2.61,1.11c.79.88,1,1.85,1,5.85m4.07,0c0-3.59,0-6.2-2.08-8.3a8.07,8.07,0,0,0-11.26,0c-2.11,2.1-2.05,4.71-2.05,8.3s-.06,6.2,2.05,8.31a8.09,8.09,0,0,0,11.26,0c2.11-2.11,2.08-4.71,2.08-8.31"/><polygon class="cls-1" points="325.1 82 325.1 102.83 338.61 102.83 338.61 99.2 329.16 99.2 329.16 82 325.1 82"/><path class="cls-1" d="M356.8,95.69V82h-4V95.54c0,2.4-1.43,3.84-3.63,3.84s-3.6-1.44-3.6-3.84V82h-4.06V95.69c0,4.42,3.39,7.31,7.66,7.31s7.67-2.89,7.67-7.31"/><polygon class="cls-1" points="360.01 82 360.01 85.63 365.45 85.63 365.45 102.83 369.52 102.83 369.52 85.63 374.96 85.63 374.96 82 360.01 82"/><rect class="cls-1" x="378.5" y="82" width="4.07" height="20.83"/><path class="cls-1" d="M398.28,92.41c0,4-.24,5-1,5.85a3.35,3.35,0,0,1-2.6,1.12A3.41,3.41,0,0,1,392,98.26c-.79-.87-1-1.84-1-5.85s.21-5,1-5.85a3.44,3.44,0,0,1,2.63-1.11,3.38,3.38,0,0,1,2.6,1.11c.79.88,1,1.85,1,5.85m4.06,0c0-3.59,0-6.2-2.08-8.3a7.49,7.49,0,0,0-5.61-2.29A7.6,7.6,0,0,0,389,84.11c-2.1,2.1-2.05,4.71-2.05,8.3s-.05,6.2,2.05,8.31a7.63,7.63,0,0,0,5.65,2.28,7.52,7.52,0,0,0,5.61-2.28c2.11-2.11,2.08-4.71,2.08-8.31"/><polygon class="cls-1" points="418.61 82 418.61 94.75 410.36 82 406.73 82 406.73 102.83 410.8 102.83 410.8 90.04 419.05 102.83 422.67 102.83 422.67 82 418.61 82"/><path class="cls-1" d="M440.63,96.68A5.78,5.78,0,0,0,439,92.27a6.81,6.81,0,0,0-4-1.61l-2.46-.35a3.6,3.6,0,0,1-1.93-.82A2,2,0,0,1,430,88c0-1.44,1.06-2.64,3.22-2.64a5.78,5.78,0,0,1,4.27,1.44l2.58-2.55a9,9,0,0,0-6.73-2.43c-4.51,0-7.26,2.61-7.26,6.32a5.5,5.5,0,0,0,1.5,4.1,7.06,7.06,0,0,0,4,1.72l2.52.35a3.13,3.13,0,0,1,1.84.74,2.3,2.3,0,0,1,.64,1.75c0,1.67-1.28,2.58-3.68,2.58a6.79,6.79,0,0,1-5-1.76l-2.64,2.63c2.05,2.08,4.45,2.75,7.61,2.75,4.36,0,7.72-2.28,7.72-6.32"/></g></g></svg>