<svg width="987.62" height="787.4" xmlns="http://www.w3.org/2000/svg">
 <defs>
  <linearGradient y2="0" x2="0.49975" y1="0.99991" x1="0.49975" id="74856d48-f61b-42c8-be79-e45253bc3d47">
   <stop stop-opacity="0.25" stop-color="gray" offset="0"/>
   <stop stop-opacity="0.12" stop-color="gray" offset="0.54"/>
   <stop stop-opacity="0.1" stop-color="gray" offset="1"/>
  </linearGradient>
 </defs>
 <title>science</title>
 <g>
  <title>background</title>
  <rect fill="none" id="canvas_background" height="602" width="802" y="-1" x="-1"/>
 </g>
 <g>
  <title>Layer 1</title>
  <path id="svg_1" fill="#4a90e2" d="m59.04,745.07s-42.27,-2.55 -37.29,27.08c0,0 -1,5.23 3.75,7.61c0,0 0.08,-2.2 4.34,-1.45a19.36,19.36 0 0 0 4.59,0.22a9.57,9.57 0 0 0 5.62,-2.32l0,0s11.88,-4.91 16.51,-24.33c0,0 3.42,-4.24 3.28,-5.33l-7.13,3s2.43,5.15 0.52,9.42c0,0 -0.24,-9.23 -1.61,-9c-0.28,0.05 -3.7,1.79 -3.7,1.79s4.19,9 1,15.48c0,0 1.2,-11.05 -2.34,-14.84l-5,2.94s4.91,9.26 1.58,16.81c0,0 0.85,-11.59 -2.63,-16.1l-4.55,3.55s4.6,9.13 1.79,15.39c0,0 -0.36,-13.49 -2.78,-14.51c0,0 -4,3.51 -4.59,5c0,0 3.16,6.62 1.2,10.12c0,0 -1.2,-9 -2.18,-9c0,0 -4,5.95 -4.38,10c0,0 0.17,-6.08 3.41,-10.61a11.89,11.89 0 0 0 -6.07,3.14s0.62,-4.21 7.05,-4.58c0,0 3.28,-4.51 4.16,-4.79c0,0 -6.4,-0.53 -10.28,1.19c0,0 3.41,-4 11.45,-2.17l4.5,-3.67s-8.43,-1.15 -12,0.12c0,0 4.11,-3.51 13.21,-0.95l4.89,-2.92s-7.19,-1.55 -11.47,-1c0,0 4.52,-2.44 12.9,0.2l3.5,-1.57s-5.27,-1 -6.81,-1.2s-1.62,-0.59 -1.62,-0.59a18.26,18.26 0 0 1 9.89,1.1s7.42,-2.76 7.29,-3.23z"/>
  <ellipse id="svg_2" opacity="0.1" fill="#4a90e2" ry="5.06" rx="29.92" cy="782.34" cx="29.92"/>
  <path id="svg_3" fill="#4a90e2" d="m987.17,677.78s-23.84,-1.44 -21,15.26a4.08,4.08 0 0 0 2.12,4.3s0,-1.24 2.44,-0.82a11.15,11.15 0 0 0 2.59,0.12a5.39,5.39 0 0 0 3.17,-1.3l0,0s6.7,-2.77 9.31,-13.72c0,0 1.92,-2.39 1.85,-3l-4,1.72s1.37,2.9 0.29,5.32c0,0 -0.13,-5.21 -0.9,-5.09c-0.16,0 -2.1,1 -2.1,1s2.37,5 0.59,8.72c0,0 0.67,-6.22 -1.32,-8.36l-2.84,1.65s2.77,5.23 0.89,9.49c0,0 0.49,-6.54 -1.48,-9.08l-2.57,2s2.6,5.14 1,8.68c0,0 -0.21,-7.61 -1.57,-8.18a15.64,15.64 0 0 0 -2.59,2.79s1.78,3.73 0.68,5.71c0,0 -0.68,-5.07 -1.24,-5.09c0,0 -2.23,3.35 -2.46,5.65a12.18,12.18 0 0 1 1.92,-6a6.69,6.69 0 0 0 -3.42,1.78s0.35,-2.38 4,-2.59c0,0 1.85,-2.54 2.35,-2.7c0,0 -3.61,-0.3 -5.8,0.67c0,0 1.93,-2.24 6.46,-1.22l2.53,-2.07s-4.75,-0.65 -6.76,0.07c0,0 2.32,-2 7.44,-0.54l2.76,-1.65a24.87,24.87 0 0 0 -6.46,-0.55s2.54,-1.38 7.27,0.11l2,-0.89s-3,-0.58 -3.83,-0.67s-0.92,-0.33 -0.92,-0.33a10.32,10.32 0 0 1 5.58,0.62s4.09,-1.55 4.02,-1.81z"/>
  <ellipse id="svg_4" opacity="0.1" fill="#4a90e2" ry="2.85" rx="16.87" cy="698.79" cx="970.75"/>
  <path id="svg_5" fill="#4a90e2" d="m938.15,723.25s-28.78,-1.73 -25.34,18.45a4.93,4.93 0 0 0 2.56,5.19s0,-1.5 3,-1a13.14,13.14 0 0 0 3.13,0.15a6.52,6.52 0 0 0 3.82,-1.58l0,0s8.09,-3.34 11.23,-16.56c0,0 2.33,-2.89 2.24,-3.63l-4.86,2.08s1.66,3.5 0.36,6.41c0,0 -0.16,-6.29 -1.09,-6.14c-0.19,0 -2.53,1.21 -2.53,1.21s2.86,6.11 0.7,10.54c0,0 0.82,-7.52 -1.59,-10.09l-3.42,2s3.34,6.31 1.08,11.45c0,0 0.58,-7.89 -1.8,-11l-3.09,2.41s3.13,6.22 1.22,10.48c0,0 -0.25,-9.18 -1.9,-9.87c0,0 -2.71,2.38 -3.12,3.37c0,0 2.15,4.51 0.82,6.89c0,0 -0.82,-6.12 -1.49,-6.15c0,0 -2.7,4.05 -3,6.83a14.77,14.77 0 0 1 2.33,-7.22a8.15,8.15 0 0 0 -4.14,2.14s0.42,-2.86 4.8,-3.11c0,0 2.23,-3.08 2.83,-3.27c0,0 -4.36,-0.36 -7,0.81c0,0 2.33,-2.7 7.8,-1.47l3.06,-2.5s-5.74,-0.79 -8.17,0.08c0,0 2.8,-2.39 9,-0.65l3.33,-2s-4.89,-1.05 -7.8,-0.67c0,0 3.07,-1.66 8.78,0.14l2.38,-1.07s-3.59,-0.71 -4.63,-0.82s-1.11,-0.4 -1.11,-0.4a12.43,12.43 0 0 1 6.73,0.75s4.96,-1.86 4.88,-2.18z"/>
  <ellipse id="svg_6" opacity="0.1" fill="#4a90e2" ry="3.44" rx="20.37" cy="748.62" cx="918.32"/>
  <ellipse id="svg_7" opacity="0.1" fill="#4a90e2" ry="14.41" rx="92.33" cy="726.42" cx="805.49"/>
  <ellipse id="svg_8" opacity="0.1" fill="#4a90e2" ry="10.41" rx="103.75" cy="767.92" cx="513.32"/>
  <ellipse id="svg_9" opacity="0.1" fill="#4a90e2" ry="4.86" rx="78.75" cy="763.13" cx="198.99"/>
  <path id="svg_10" opacity="0.1" fill="#4a90e2" d="m338.81,34.25c29.21,-26 75.07,-31.33 116.8,-29.26c131.09,6.51 249.42,69.8 351.78,141.39c37.06,25.91 73.54,53.84 97.59,89.53c49,72.64 34.44,173.28 -33.64,233.13c-23.17,20.36 -51.25,36 -80.08,49.81c-51.26,24.61 -106.57,44.36 -164.74,50c-41.49,4 -83.49,0.75 -124.73,-4.85c-115.24,-15.64 -228.35,-50.2 -323.15,-109.3c-41.58,-26 -80.78,-58.2 -97.92,-100.15s-6.17,-95.11 36.29,-119.94c17.56,-10.27 38.56,-14.91 59.11,-19.26c30.26,-6.41 61,-12.73 88.31,-25.77c28.2,-13.46 61.59,-39.49 56,-69.28c-5.98,-31.97 -10.79,-60.05 18.38,-86.05z"/>
  <path id="svg_11" opacity="0.9" fill="#96b7fe" d="m580.86,391.78l0,-190.94l26,0l0,-57l-186.3,0l0,57l26,0l0,190.94a189.38,189.38 0 0 0 -122.14,177c0,104.55 84.76,189.3 189.31,189.3s189.3,-84.75 189.3,-189.3a189.37,189.37 0 0 0 -122.17,-177z"/>
  <rect id="svg_12" opacity="0.1" height="2.57" width="134.34" y="200.25" x="446.52"/>
  <path id="svg_13" fill="#4a90e2" d="m407.81,563.7s114,-2 171,-30.53s89.57,-3.06 86.51,14.25s-19.33,50.88 -84.47,55s-173.04,-38.72 -173.04,-38.72z"/>
  <path id="svg_14" opacity="0.1" d="m407.81,563.7s114,-2 171,-30.53s89.57,-3.06 86.51,14.25s-19.33,50.88 -84.47,55s-173.04,-38.72 -173.04,-38.72z"/>
  <path id="svg_15" fill="#4a90e2" d="m358.99,545.4s-12.18,168.95 147.57,172s158.77,-170 158.77,-170s-59,64.11 -198.46,11.19c0,0.04 -72.26,-19.3 -107.88,-13.19z"/>
  <path id="svg_16" opacity="0.1" d="m664.81,548.01c-3.19,38.92 -23.88,160.75 -158.19,158.18c-131.66,-2.49 -146.57,-117.59 -147.74,-158.08c-0.73,21.73 -0.08,166.45 147.71,169.28c159.79,3 158.77,-170 158.77,-170s-0.2,0.25 -0.55,0.62z"/>
  <circle id="svg_17" opacity="0.3" fill="#4a90e2" r="20.73" cy="472.5" cx="507.53"/>
  <circle id="svg_18" opacity="0.3" fill="#4a90e2" r="12.83" cy="389.57" cx="519.37"/>
  <circle id="svg_19" opacity="0.3" fill="#4a90e2" r="12.83" cy="315.52" cx="490.74"/>
  <path id="svg_20" opacity="0.2" fill="#fff" d="m380.81,488.49c-1.1,8.74 -0.88,19.68 6.93,23.76c-6.55,-3.42 20.3,-42.2 16.49,-50.12c-8.15,-16.9 -22.42,18.24 -23.42,26.36z"/>
  <circle id="svg_21" opacity="0.3" fill="#4a90e2" r="20.73" cy="85.01" cx="480.37"/>
  <circle id="svg_22" opacity="0.3" fill="#4a90e2" r="15.41" cy="49.47" cx="542.56"/>
  <circle id="svg_23" opacity="0.3" fill="#4a90e2" r="8.01" cy="8.01" cx="498.14"/>
  <path id="svg_24" opacity="0.9" fill="#96b7fe" d="m283.81,263.18l-167.53,0l0,49.69l25.53,0l0,387.66a58.25,58.25 0 1 0 116.49,0l0,-387.66l25.51,0l0,-49.69z"/>
  <path id="svg_25" fill="#4a90e2" d="m180.62,400.7s41.46,-14.81 53,-4.28c0,0 -16.79,24.68 -32.25,23.69s-20.75,-19.41 -20.75,-19.41z"/>
  <path id="svg_26" opacity="0.1" d="m180.62,400.7s41.46,-14.81 53,-4.28c0,0 -16.79,24.68 -32.25,23.69s-20.75,-19.41 -20.75,-19.41z"/>
  <path id="svg_27" fill="#4a90e2" d="m233.6,396.46l0,281.36a35.54,35.54 0 0 1 -35.54,35.54l0,0a35.54,35.54 0 0 1 -35.54,-35.54l0,-281.36s17.11,-4.61 33.23,5.27s37.85,-5.27 37.85,-5.27z"/>
  <rect id="svg_28" opacity="0.1" height="2.29" width="116.49" y="312.56" x="141.79"/>
  <path id="svg_29" opacity="0.1" d="m198.06,696.25l0,0a35.54,35.54 0 0 1 -35.54,-35.55l0,17.77a35.54,35.54 0 0 0 35.54,35.54l0,0a35.54,35.54 0 0 0 35.54,-35.54l0,-17.77a35.54,35.54 0 0 1 -35.54,35.55z"/>
  <circle id="svg_30" opacity="0.3" fill="#4a90e2" r="7.24" cy="361.59" cx="198.07"/>
  <circle id="svg_31" opacity="0.3" fill="#4a90e2" r="4.61" cy="335.92" cx="221.76"/>
  <circle id="svg_32" opacity="0.3" fill="#4a90e2" r="4.61" cy="326.71" cx="189.51"/>
  <path id="svg_33" opacity="0.2" fill="#fff" d="m150.81,453.94c-1.1,8.74 -0.88,19.68 6.93,23.76c-6.56,-3.42 20.3,-42.19 16.49,-50.12c-8.17,-16.88 -22.42,18.25 -23.42,26.36z"/>
  <circle id="svg_34" opacity="0.3" fill="#4a90e2" r="17.59" cy="214.5" cx="213.09"/>
  <circle id="svg_35" opacity="0.3" fill="#4a90e2" r="13.08" cy="184.34" cx="160.32"/>
  <circle id="svg_36" opacity="0.3" fill="#4a90e2" r="6.8" cy="149.16" cx="198.01"/>
  <path id="svg_37" fill="url(#74856d48-f61b-42c8-be79-e45253bc3d47)" d="m895.86,451.32s-15.35,-76.34 -9.48,-85.84c0,0 0.21,-8.83 -0.14,-20.08c0,-0.43 0,-0.86 0,-1.3a26.53,26.53 0 0 0 3.22,1.88a26,26 0 0 0 17.57,2.27l-4.67,-5.18c-1.11,-1.24 -2.28,-2.57 -2.52,-4.21a9.17,9.17 0 0 1 1,-4.55c4.41,-11.15 4.68,-25.18 -3.86,-33.69c-7.18,-7.16 -8.94,-16.4 -16.7,-22.93c-5.7,-4.79 -8.83,-11.81 -11.79,-18.58c-2.5,-5.74 -5,-11.52 -6.45,-17.6c-1.12,-4.75 -1.56,-9.66 -3.1,-14.3s-4.4,-9.15 -8.89,-11.22a32.66,32.66 0 0 1 -4.83,-2.14c-1.92,-1.29 -3.07,-3.39 -4.45,-5.22c-7,-9.31 -30.6,-3.83 -41.76,-0.05a23.51,23.51 0 0 0 -8.25,4.57l0.1,-0.17l0.28,-0.41a14.78,14.78 0 0 0 -3.12,3.48c-1.63,2.58 -2.31,5.61 -3.66,8.33c-1.64,3.3 -10.74,12.51 -6.83,16.22a3.35,3.35 0 0 0 0.91,0.6a8.15,8.15 0 0 0 4.61,0.46c-0.06,0.13 -0.12,0.26 -0.17,0.39a27.26,27.26 0 0 0 -2,10.31a27.9,27.9 0 0 0 28.14,27.65a28.52,28.52 0 0 0 8.62,-1.32c0.07,0.35 0.13,0.7 0.19,1.05c0,0.15 0,0.29 0.07,0.43l0,0l-0.49,0.69l-0.08,-0.13l-14.59,20.4c-2.23,1.56 -15.08,10.86 -15.77,17.83c-0.76,7.63 -1.52,16.57 -1.52,16.57l-0.1,1.91a5.76,5.76 0 0 1 -4.64,1.26c-4.55,-0.75 -4.55,16.76 -4.55,16.76s-3,2.79 -5.11,0.37s-7.58,5.77 -7.58,5.77l-34.49,1.49l0,0l-0.79,0l-1.86,-5.76a2.43,2.43 0 0 0 -3,-1.54a1.94,1.94 0 0 0 -0.42,0.17l-0.12,0.08a1.46,1.46 0 0 0 -0.24,0.17a0.69,0.69 0 0 0 -0.13,0.11a1.7,1.7 0 0 0 -0.19,0.19a1.47,1.47 0 0 0 -0.1,0.13l-0.06,0.06l0,0a2.35,2.35 0 0 0 -0.34,2.08l1.6,4.94c-6.65,1.34 -13.46,5.11 -7.91,15.51l-28.12,-5.19l9.1,7.63l47,9.7c-0.62,1.12 -0.21,2.73 1.73,5c8.35,9.82 23.61,12.48 29.74,13.18a52.59,52.59 0 0 0 6,10.19l-0.54,9.78s-15.52,74.59 -18.37,78.38a44.23,44.23 0 0 0 3.85,-5.2c-4.51,15.33 -10.81,36.31 -12.46,39.45c-2.66,5 -5.12,25.32 -2.09,26.63c0.95,0.4 3.58,0.21 7.37,-0.08l0,1.68l-0.17,63.75s0.76,39.11 -1.33,42.83s-2.65,11.54 -2.65,11.54s-8.38,15.43 -15,21.63l-0.15,0.13l-0.21,-1.46s-8,10.06 -25.58,9.5c0,0 -10.61,6.89 5.12,7.26s35.81,-0.56 35.81,-0.56s14,-21.41 25.77,-18.62l0,16.2l3.6,0l0,-16.34a14.76,14.76 0 0 0 6.4,-9.71a11.75,11.75 0 0 0 -4.19,-10.89a7,7 0 0 1 -2.3,-5.1l-0.13,0.11c0,-0.32 -0.08,-0.65 -0.13,-1c-1,-8.38 -2.31,-25.62 2.25,-38.4c6.25,-17.51 8.15,-41.89 3.6,-56.42a129.1,129.1 0 0 1 -3.6,-14.13c-0.11,-0.61 -0.22,-1.18 -0.31,-1.72a71,71 0 0 1 9.23,1.89c10.56,2.9 33.63,3.44 53.33,3.29c0.05,0.54 0.11,1.1 0.17,1.67a60.66,60.66 0 0 0 2.22,11.6c2.46,7.46 3.6,40.22 3.6,40.22s3.19,26.95 1.45,37.93c-1,6.1 -1.84,12.22 -2.39,18.37l0,0.12s-5.22,14.89 -9,23c-0.1,0.21 -0.19,0.41 -0.29,0.61a12.6,12.6 0 0 0 -3,0.65s-5.11,10.24 -10.23,11.92s-3.41,7.26 8.15,5.21s29,-3.72 29,-3.72l0.76,-10.43l3.55,-4.44l-0.9,10.4l3.79,-0.74l-0.5,-12.66l5.81,-7.27s7,-6.24 -3.41,-18.52l0,0.26c-0.11,-0.18 -0.22,-0.36 -0.34,-0.53l0,-0.06c-1.72,-2.68 -3.1,-7.67 -0.58,-16.53c4.55,-16 7.2,-30.53 7.2,-30.53s10.17,-38.91 -2.06,-57.33l0.55,0a31.08,31.08 0 0 1 -2.64,-8.18c-0.06,-0.34 -0.11,-0.69 -0.17,-1c9,-0.52 17.93,-2.16 25.16,-5.68c-0.08,-0.11 -4.43,-92.47 -8.03,-107.18zm-114.83,-64.4l0,0.18l-1.87,0.09l1.87,-0.27zm-6.37,0.88a2,2 0 0 0 -0.84,0.4a8.31,8.31 0 0 0 -1.46,3.82l-2.9,-0.66s-2,-0.43 -5,-0.91l-1.39,-1.39c3.86,-0.36 7.82,-0.79 11.59,-1.26z"/>
  <polygon id="svg_38" fill="#1d2366" points="870.61 703.96 869.5 717.14 873.21 716.39 872.65 702.11 870.61 703.96"/>
  <path id="svg_39" fill="#ffb0b1" d="m786,641.43c-4.47,12.73 -3.19,29.92 -2.19,38.27c0.37,3.09 0.71,5 0.71,5s-6.68,15.22 -7.24,15.78s-19.68,12.22 -19.68,12.22l-13.36,7.79s-13.55,-5.94 -7,-8a9.87,9.87 0 0 0 3.5,-2.39c6.48,-6.18 14.69,-21.55 14.69,-21.55s0.55,-7.79 2.59,-11.5s1.3,-42.68 1.3,-42.68l0.17,-63.54l0,-8.28l25.42,0.19a58.33,58.33 0 0 0 1.1,8.37a129.44,129.44 0 0 0 3.54,14.08c4.42,14.51 2.57,38.79 -3.55,56.24z"/>
  <path id="svg_40" opacity="0.1" d="m784.51,684.7s-6.68,15.22 -7.24,15.78s-19.67,12.22 -19.67,12.22l-13.36,7.79s-13.55,-5.94 -7,-8a9.87,9.87 0 0 0 3.5,-2.39l0.58,4.06l4.46,-0.19l38.03,-34.27c0.36,3.08 0.7,5 0.7,5z"/>
  <path id="svg_41" fill="#1d2366" d="m784.05,680.58l-38.32,34.52l-4.46,0.18l-0.92,-6.49s-7.8,10 -25.06,9.46c0,0 -10.39,6.87 5,7.24s35.08,-0.56 35.08,-0.56s13.73,-21.34 25.23,-18.55l0,16.14l3.53,0l0,-16.33a14.67,14.67 0 0 0 6.26,-9.67a11.83,11.83 0 0 0 -4.1,-10.86a7,7 0 0 1 -2.24,-5.08z"/>
  <path id="svg_42" fill="#ffb0b1" d="m874.14,661.28c-2.47,8.83 -1.12,13.8 0.56,16.47l0,0.06a30.42,30.42 0 0 1 4.47,10.89l0.16,0.84l-17.44,25.42l-9.46,3.71s-15.22,-5.19 -12.44,-6.68c0.7,-0.37 1.79,-2.29 3,-5c3.73,-8 8.85,-22.86 8.85,-22.86l0,-0.13c0.53,-6.13 1.39,-12.23 2.34,-18.31c1.7,-10.93 -1.42,-37.79 -1.42,-37.79s-1.11,-32.65 -3.53,-40.08a62,62 0 0 1 -2.17,-11.56c-0.5,-4.67 -0.61,-8.48 -0.61,-8.48s10,-13.92 28.39,1.11a20.54,20.54 0 0 1 3.83,4.17c12.69,18 2.48,57.81 2.48,57.81s-2.56,14.46 -7.01,30.41z"/>
  <path id="svg_43" opacity="0.1" d="m879.33,689.49l-17.44,25.42l-9.46,3.71s-15.22,-5.19 -12.44,-6.68c0.7,-0.37 1.79,-2.29 3,-5c6.44,0 9.78,6.08 9.78,6.08l8.16,-1.29s10.77,-21.16 13.18,-22.45s0.37,-9.66 0.37,-9.66l0,-2.13l0.19,0.23l0,0.06a30.42,30.42 0 0 1 4.5,10.92l0.16,0.79z"/>
  <path id="svg_44" fill="#1d2366" d="m853.35,713.61s-4.64,-8.53 -13.54,-5.38c0,0 -5,10.21 -10,11.88s-3.34,7.23 8,5.19s28.39,-3.71 28.39,-3.71l0.74,-10.39l11.5,-14.66s6.87,-6.22 -3.34,-18.46l0,2.13s2,8.35 -0.37,9.65s-13.17,22.45 -13.17,22.45l-8.21,1.3z"/>
  <path id="svg_45" opacity="0.1" d="m784.88,562.75a58.33,58.33 0 0 0 1.1,8.37c-10.47,-1.54 -20.18,-0.77 -26.54,-0.28l0,-8.28l25.44,0.19z"/>
  <path id="svg_46" opacity="0.1" d="m879.7,575.37s-14.88,0.72 -32.6,0.87c-0.5,-4.67 -0.61,-8.48 -0.61,-8.48s10,-13.92 28.39,1.11a20.54,20.54 0 0 1 3.83,4.17a24.42,24.42 0 0 0 0.99,2.33z"/>
  <path id="svg_47" fill="#1d2366" d="m879.7,573.7s-65.13,3.15 -85,-2.41s-39.52,-0.75 -42.49,-2.05s-0.55,-21.52 2,-26.53s16.89,-55.67 16.89,-55.67l13.73,-71.63l14.48,-4l1,-0.28l25.21,-7l18.49,-5.1s36.74,143.44 33.58,154a27,27 0 0 0 -0.53,12.45a31.19,31.19 0 0 0 2.64,8.22z"/>
  <path id="svg_48" fill="#c7daf5" d="m737.01,366.42s-13,13.92 -3.16,21.71s16.33,0.75 16.33,0.75l-13.17,-22.46z"/>
  <path id="svg_49" opacity="0.1" d="m737.01,366.42s-13,13.92 -3.16,21.71s16.33,0.75 16.33,0.75l-13.17,-22.46z"/>
  <path id="svg_50" fill="#ffb0b1" d="m842.13,274.76s-1.52,1.44 -3.82,3.59c-3.27,3.05 -8.11,7.52 -12.41,11.27c-6,5.18 -10.85,9 -9.1,5.73s1.42,-8.89 0.55,-14.18l-0.18,-1.05a97.29,97.29 0 0 0 -2.88,-11.49s9.61,-12.42 14.93,-17.32c2,-1.83 3.37,-2.61 3.44,-1.33c0.1,1.74 1.41,5.54 3,9.66c0.06,0.12 0.11,0.25 0.16,0.37c1.08,2.77 2.29,5.66 3.36,8.13c1.63,3.79 2.95,6.62 2.95,6.62z"/>
  <path id="svg_51" opacity="0.1" d="m835.81,260.01a27.6,27.6 0 0 1 -18.48,21.16a95.43,95.43 0 0 0 -3.06,-12.54s18.09,-23.38 18.37,-18.65c0.17,1.8 1.51,5.78 3.17,10.03z"/>
  <path id="svg_52" opacity="0.1" d="m815.55,287.42l2.34,-3.29s1.55,9.46 7.26,5.29s6,31.4 6,31.4l-6.14,91.58l-44.26,-2.65l1.25,-44.25l5,-22.27l12.39,-32.43l7.42,-10.71l8.74,-12.67z"/>
  <path id="svg_53" fill="#1d2366" d="m831.13,321.38l-5.54,82.8l-0.58,8.77l-24.68,-1.47l-1,-0.06l-18.61,-1.11l1.25,-44.26l5,-22.26l12.39,-32.43l7.45,-10.72l8.77,-12.66l2.34,-3.3s1.55,9.47 7.26,5.29l0.11,-0.08l0,0c5.57,-3.58 5.84,31.49 5.84,31.49z"/>
  <path id="svg_54" fill="#fff" d="m787.66,335.99s-2.22,4.64 -6.68,3.9s-4.45,16.7 -4.45,16.7s-3,2.78 -5,0.37s-7.42,5.75 -7.42,5.75l-33.77,1.49s15,6.86 12.06,27.65c0,0 51,-3.16 52.7,-8s-7.44,-47.86 -7.44,-47.86z"/>
  <path id="svg_55" opacity="0.03" d="m787.66,335.99s-2.22,4.64 -6.68,3.9s-4.45,16.7 -4.45,16.7s-3,2.78 -5,0.37s-7.42,5.75 -7.42,5.75l-33.77,1.49s15,6.86 12.06,27.65c0,0 51,-3.16 52.7,-8s-7.44,-47.86 -7.44,-47.86z"/>
  <polygon id="svg_56" fill="#fff" points="689.5 375.14 698.41 382.75 771.71 398.15 762.61 388.88 689.5 375.14"/>
  <path id="svg_57" fill="#fff" d="m815.68,290.34c-1.21,1.82 -4.69,11.38 -7.61,19.69c-2.42,6.92 -4.45,13 -4.45,13s-4.73,30.81 -7.14,36.37s-1.11,27.3 -1.11,27.3l-9,53.63s-4.08,27.65 -10.38,44.16c-6.18,16.21 -13.18,23.84 -13.37,24.07c2.79,-3.77 18,-78.11 18,-78.11l5,-93.72s0.74,-8.9 1.49,-16.51s15.77,-18 15.77,-18l14.52,-20.65c1.49,2.03 0.51,5.43 -1.72,8.77z"/>
  <path id="svg_58" fill="#ffb0b1" d="m777.81,410.77s-21.34,-0.92 -31.73,-13.36s23.94,-5 23.94,-5l8.9,2l-1.11,16.36z"/>
  <path id="svg_59" opacity="0.1" d="m877.66,553.1a27,27 0 0 0 -0.53,12.45c-23.32,1.66 -48.27,-4.66 -48.27,-4.66c-4.64,4.27 -16.89,10.58 -16.89,10.58l-6.68,-82.77c-4.26,-11.14 -5.93,-69.59 -5.93,-69.59s0.38,-3.06 1,-7.64c0,-0.11 0,-0.23 0.05,-0.34c1.67,-12.8 5,-36.83 6.58,-40.08c2.23,-4.45 -6.86,-16.32 -6.86,-16.32l4.13,-35.28l0.5,-4.25c8.73,-3.9 15.41,-16.33 15.41,-16.33l5.12,-9l0,0c5.59,-3.58 5.86,31.49 5.86,31.49l-5.54,82.8l18.49,-5.1s36.71,143.46 33.56,154.04z"/>
  <path id="svg_60" fill="#fff" d="m901.6,558.85c-25.42,12.62 -71.63,0.93 -71.63,0.93c-4.64,4.27 -16.89,10.58 -16.89,10.58l-6.68,-82.77c-4.26,-11.13 -5.93,-69.58 -5.93,-69.58s5.38,-43.61 7.6,-48.06c0.65,-1.3 0.34,-3.23 -0.43,-5.31a67.28,67.28 0 0 1 -4.07,-31.14l1.78,-15.15l0.5,-4.25c8.72,-3.9 15.4,-16.34 15.4,-16.34l4.65,-8.14l8.56,-15l4.05,-7.1l0.68,0.62l5.26,4.76s2.23,1.84 5.57,4.67c7.28,6.13 19.86,16.93 26.34,23.53c5.71,5.83 7.51,28.46 8,45.5c0.35,11.21 0.14,20 0.14,20c-5.76,9.46 9.27,85.55 9.27,85.55c3.56,14.66 7.83,106.7 7.83,106.7z"/>
  <path id="svg_61" opacity="0.03" d="m852.81,297.58s-17.45,33.22 -15.4,45.83s7.79,26.91 5,30.25a10.26,10.26 0 0 1 -8.17,4.08c-2.78,0.19 -10.21,5.38 -10.21,5.94s-6.86,0.56 -13,3.16s-15.22,4.08 -15.22,4.08s-17.63,-0.56 -19.3,1.11s-3.34,11.69 0.19,19.67s7.42,13.92 10.39,15s21.71,-5.19 36.92,-6.68s31.8,-13.51 31.8,-13.51s18.18,-6.5 21.34,-17.45s-3.9,-71.07 -3.9,-71.07s-5.44,-28.02 -20.44,-20.41z"/>
  <path id="svg_62" opacity="0.03" d="m850.57,294.8s-17.44,33.21 -15.4,45.83s7.79,26.91 5,30.25a10.26,10.26 0 0 1 -8.17,4.08c-2.78,0.19 -10.2,5.38 -10.2,5.94s-6.87,0.55 -13,3.15s-15.22,4.08 -15.22,4.08s-17.63,-0.55 -19.3,1.12s-3.34,11.69 0.19,19.67s7.42,13.92 10.39,15s21.71,-5.2 36.93,-6.68s31.75,-13.54 31.75,-13.54s18.18,-6.49 21.34,-17.44s-3.9,-71.07 -3.9,-71.07s-5.38,-28 -20.41,-20.39z"/>
  <path id="svg_63" fill="#fff" d="m852.24,295.91s-17.43,33.22 -15.43,45.79s7.79,26.91 5,30.25a10.23,10.23 0 0 1 -8.17,4.08c-2.78,0.19 -10.2,5.38 -10.2,5.94s-6.87,0.56 -13,3.16s-15.22,4.08 -15.22,4.08s-17.63,-0.56 -19.3,1.11s-3.34,11.69 0.19,19.67s7.42,13.92 10.39,15s21.71,-5.19 36.93,-6.68s31.73,-13.54 31.73,-13.54s18.18,-6.5 21.34,-17.45s-3.9,-71.07 -3.9,-71.07s-5.33,-27.95 -20.36,-20.34z"/>
  <path id="svg_64" opacity="0.1" d="m851.87,384.98s-13.92,-2.78 -9.09,1.86s4.82,8.72 10.76,8.53s-1.67,-10.39 -1.67,-10.39z"/>
  <path id="svg_65" opacity="0.1" d="m875.44,485s-6.31,4.27 5.75,14.1s-5.75,-14.1 -5.75,-14.1z"/>
  <path id="svg_66" opacity="0.1" d="m863.37,520.07c0,0.56 -2.22,20.41 6.13,25.42s-6.13,-25.42 -6.13,-25.42z"/>
  <path id="svg_67" fill="#ffb0b1" d="m730.88,364.18c-6.72,0.23 -21.27,2.29 -13.73,16.35c6.67,12.44 17.87,4.13 24.14,-2.19a23.73,23.73 0 0 0 -10.41,-14.16z"/>
  <path id="svg_68" fill="#ffb0b1" d="m742,377.61l0,0z"/>
  <path id="svg_69" fill="#ffb0b1" d="m741.4,378.23c0.1,-0.09 0.19,-0.19 0.28,-0.28c-0.09,0.09 -0.18,0.19 -0.28,0.28z"/>
  <path id="svg_70" opacity="0.1" d="m850.02,278.12c-7.14,4.88 -13.13,9 -14.29,9.86c-3.21,2.36 -9.33,16.28 -13.23,23.38c-3.14,5.72 -13.31,7.19 -17.15,7.55l0.46,-4.21c8.72,-3.89 15.4,-16.33 15.4,-16.33l17.26,-30.24l5.94,5.38s2.27,1.79 5.61,4.61z"/>
  <path id="svg_71" fill="#dce7ff" d="m850.02,277.57c-7.14,4.87 -13.13,9 -14.29,9.85c-3.21,2.37 -9.33,16.28 -13.23,23.38c-3.14,5.72 -13.31,7.19 -17.15,7.55l0.5,-4.25c8.72,-3.9 15.4,-16.34 15.4,-16.34l17.26,-30.24l5.94,5.38s2.23,1.8 5.57,4.67z"/>
  <path id="svg_72" fill="#ffb0b1" d="m836.28,253.88a26.68,26.68 0 0 1 -0.61,5.76a27.17,27.17 0 0 1 -4.24,9.86a27.56,27.56 0 1 1 4.85,-15.62z"/>
  <path id="svg_73" opacity="0.1" d="m884.39,346.6a24.48,24.48 0 0 1 -8.89,-9.56c-1.55,-3.07 -2.58,-6.6 -5.24,-8.79c-2.38,-1.94 -5.6,-2.42 -8.55,-3.29c-9.77,-2.89 -18,-11.82 -18.28,-22c-0.14,-4.79 1.35,-9.58 0.67,-14.32a15.79,15.79 0 0 0 -3.11,-7.39a22.89,22.89 0 0 0 -2.68,-2.89c-1.3,-1.23 -2.67,-2.42 -3.85,-3.73a14.53,14.53 0 0 1 -2,-2.65a13.09,13.09 0 0 1 -1.07,-2.47c-1.82,-5.68 -0.17,-12.44 -2.21,-18.19c0,-0.1 -0.07,-0.21 -0.11,-0.31c-0.78,-2.05 -2.35,-4.09 -4.52,-4.25s-4.06,1.65 -6.14,2.47c-4.36,1.69 -9.07,-1.19 -12.7,-4.13s-7.73,-6.3 -12.36,-5.64c-3.05,0.43 -5.47,2.52 -8.28,3.6a13.41,13.41 0 0 1 -2,0.56a27.56,27.56 0 0 1 53.13,10.27a26.68,26.68 0 0 1 -0.61,5.76c0.06,0.12 0.11,0.25 0.16,0.37c1.08,2.77 2.29,5.66 3.36,8.13l5.26,4.76s2.23,1.84 5.57,4.67c7.28,6.13 19.86,16.93 26.34,23.53c5.79,5.82 7.59,28.45 8.11,45.49z"/>
  <path id="svg_74" fill="#ffaa56" d="m784.81,226.09c1.33,-2.71 2,-5.74 3.58,-8.3c2.33,-3.75 6.41,-6.1 10.58,-7.54c10.92,-3.76 34,-9.23 40.89,0c1.36,1.83 2.48,3.93 4.36,5.22a33.57,33.57 0 0 0 4.73,2.12c4.4,2.07 7.21,6.56 8.71,11.18s1.94,9.52 3,14.26c1.4,6.06 3.87,11.81 6.32,17.53c2.89,6.75 6,13.74 11.54,18.52c7.61,6.51 9.32,15.72 16.35,22.85c8.37,8.48 8.1,22.47 3.79,33.57a9.25,9.25 0 0 0 -1,4.54a8.68,8.68 0 0 0 2.47,4.2l4.57,5.16a25.71,25.71 0 0 1 -28.09,-13c-1.56,-3.07 -2.59,-6.6 -5.25,-8.78c-2.38,-1.95 -5.59,-2.42 -8.55,-3.3c-9.77,-2.89 -18,-11.82 -18.28,-22c-0.14,-4.78 1.35,-9.58 0.68,-14.32a15.93,15.93 0 0 0 -3.1,-7.3c-2.57,-3.34 -6.42,-5.61 -8.5,-9.27c-3.52,-6.21 -0.85,-14.29 -3.39,-21c-0.78,-2 -2.34,-4.09 -4.52,-4.25s-4.06,1.66 -6.14,2.47c-4.36,1.69 -9.06,-1.19 -12.69,-4.13s-7.74,-6.29 -12.36,-5.63c-3.06,0.43 -5.47,2.51 -8.29,3.59c-2.08,0.8 -6.3,1.52 -8.13,-0.24c-3.83,-3.68 5.08,-12.86 6.72,-16.15z"/>
  <path id="svg_75" opacity="0.1" d="m879.21,333.33c-1.55,-3.07 -2.58,-6.6 -5.24,-8.79c-2.38,-1.95 -5.6,-2.42 -8.55,-3.29c-9.77,-2.89 -18,-11.82 -18.28,-22c-0.15,-4.79 1.35,-9.58 0.67,-14.32a15.79,15.79 0 0 0 -3.11,-7.39c-2.56,-3.34 -6.42,-5.62 -8.49,-9.28c-3.53,-6.21 -0.85,-14.29 -3.39,-21c-0.78,-2 -2.34,-4.09 -4.52,-4.25s-4.06,1.65 -6.14,2.46c-4.36,1.7 -9.07,-1.18 -12.69,-4.12s-7.74,-6.29 -12.37,-5.64c-3,0.43 -5.46,2.51 -8.28,3.6c-2.08,0.8 -6.3,1.52 -8.13,-0.24c-3.83,-3.7 5.08,-12.88 6.69,-16.16c1.33,-2.71 2,-5.74 3.58,-8.3l0.27,-0.42a14.71,14.71 0 0 0 -3,3.48c-1.6,2.56 -2.26,5.59 -3.58,8.3c-1.61,3.29 -10.52,12.47 -6.69,16.16c1.82,1.76 6,1 8.13,0.24c2.81,-1.08 5.22,-3.16 8.28,-3.6c4.62,-0.65 8.73,2.7 12.36,5.64s8.34,5.82 12.69,4.13c2.09,-0.81 3.91,-2.64 6.14,-2.47s3.75,2.2 4.53,4.25c2.54,6.67 -0.14,14.75 3.38,21c2.08,3.65 5.94,5.93 8.5,9.27a15.79,15.79 0 0 1 3.11,7.39c0.68,4.74 -0.82,9.53 -0.67,14.32c0.31,10.19 8.51,19.12 18.28,22c2.95,0.87 6.17,1.34 8.55,3.3c2.66,2.18 3.68,5.71 5.24,8.78a25.71,25.71 0 0 0 28.09,13l-2.15,-2.44c-9.44,0.16 -18.93,-5.18 -23.21,-13.61z"/>
  <path id="svg_76" opacity="0.1" d="m815.13,290.9c-1.22,1.82 -4.7,11.38 -7.61,19.68c-2.72,-1.05 -5.2,-7.81 -5.2,-7.81l14.49,-20.65c1.52,2.04 0.54,5.44 -1.68,8.78z"/>
  <path id="svg_77" fill="#dce7ff" d="m815.68,290.34c-1.21,1.82 -4.69,11.38 -7.61,19.69c-2.72,-1.05 -5.19,-7.81 -5.19,-7.81l14.52,-20.65c1.49,2.03 0.51,5.43 -1.72,8.77z"/>
  <path id="svg_78" fill="#be8b87" d="m731.27,385.3l-8.05,-25.35a2.38,2.38 0 0 1 1.54,-3l0,0a2.36,2.36 0 0 1 3,1.54l8.05,25.37l-0.8,5.31l-3.74,-3.87z"/>
  <path id="svg_79" opacity="0.1" fill="#fff" d="m723.98,357.7l0,0a2.38,2.38 0 0 1 3,1.55l8.05,25.35l-0.61,4l0.59,0.61l0.8,-5.31l-8.05,-25.35a2.36,2.36 0 0 0 -3,-1.54l0,0a2.32,2.32 0 0 0 -1.23,0.91a2.28,2.28 0 0 1 0.45,-0.22z"/>
  <polygon id="svg_80" fill="#efc8c4" points="731.27 385.3 735.79 383.86 735.13 388.22 734.99 389.17 733.67 387.79 731.27 385.3"/>
  <path id="svg_81" fill="#727a9c" d="m733.67,387.79a1.13,1.13 0 0 1 0.29,-0.24a0.41,0.41 0 0 1 0.43,0a1,1 0 0 1 0.16,0.25a0.79,0.79 0 0 0 0.58,0.39l-0.14,1l-1.32,-1.4z"/>
  <path id="svg_82" fill="#ffb0b1" d="m723.18,368.93s16.15,-0.09 12.34,6.77s-9.74,7.7 -9.74,7.7l-2.6,-14.47z"/>
 </g>
</svg>